<?xml version="1.0" encoding="UTF-8" standalone="no"?>
<!DOCTYPE svg PUBLIC "-//W3C//DTD SVG 1.1//EN"
 "http://www.w3.org/Graphics/SVG/1.1/DTD/svg11.dtd">
<!-- Generated by graphviz version 2.40.1 (20161225.0304)
 -->
<!-- Title: Perl Pages: 1 -->
<svg width="1657pt" height="872pt"
 viewBox="0.00 0.00 1657.39 872.00" xmlns="http://www.w3.org/2000/svg" xmlns:xlink="http://www.w3.org/1999/xlink">
<g id="graph0" class="graph" transform="scale(1 1) rotate(0) translate(4 868)">
<title>Perl</title>
<polygon fill="#ffffff" stroke="transparent" points="-4,4 -4,-868 1653.394,-868 1653.394,4 -4,4"/>
<!-- study_arm -->
<g id="node1" class="node">
<title>study_arm</title>
<path fill="none" stroke="#000000" d="M817.166,-234.5C817.166,-234.5 945.0352,-234.5 945.0352,-234.5 951.0352,-234.5 957.0352,-240.5 957.0352,-246.5 957.0352,-246.5 957.0352,-258.5 957.0352,-258.5 957.0352,-264.5 951.0352,-270.5 945.0352,-270.5 945.0352,-270.5 817.166,-270.5 817.166,-270.5 811.166,-270.5 805.166,-264.5 805.166,-258.5 805.166,-258.5 805.166,-246.5 805.166,-246.5 805.166,-240.5 811.166,-234.5 817.166,-234.5"/>
<text text-anchor="middle" x="842.7178" y="-248.3" font-family="Times,serif" font-size="14.00" fill="#000000">study_arm</text>
<polyline fill="none" stroke="#000000" points="880.2695,-234.5 880.2695,-270.5 "/>
<text text-anchor="middle" x="890.0195" y="-248.3" font-family="Times,serif" font-size="14.00" fill="#000000"> </text>
<polyline fill="none" stroke="#000000" points="899.7695,-234.5 899.7695,-270.5 "/>
<text text-anchor="middle" x="918.6523" y="-248.3" font-family="Times,serif" font-size="14.00" fill="#000000">arm</text>
<polyline fill="none" stroke="#000000" points="937.5352,-234.5 937.5352,-270.5 "/>
<text text-anchor="middle" x="947.2852" y="-248.3" font-family="Times,serif" font-size="14.00" fill="#000000"> </text>
</g>
<!-- study -->
<g id="node7" class="node">
<title>study</title>
<path fill="none" stroke="#000000" d="M767.3901,-95.5C767.3901,-95.5 994.811,-95.5 994.811,-95.5 1000.811,-95.5 1006.811,-101.5 1006.811,-107.5 1006.811,-107.5 1006.811,-171.5 1006.811,-171.5 1006.811,-177.5 1000.811,-183.5 994.811,-183.5 994.811,-183.5 767.3901,-183.5 767.3901,-183.5 761.3901,-183.5 755.3901,-177.5 755.3901,-171.5 755.3901,-171.5 755.3901,-107.5 755.3901,-107.5 755.3901,-101.5 761.3901,-95.5 767.3901,-95.5"/>
<text text-anchor="middle" x="778.5591" y="-135.3" font-family="Times,serif" font-size="14.00" fill="#000000">study</text>
<polyline fill="none" stroke="#000000" points="801.728,-95.5 801.728,-183.5 "/>
<text text-anchor="middle" x="811.478" y="-135.3" font-family="Times,serif" font-size="14.00" fill="#000000"> </text>
<polyline fill="none" stroke="#000000" points="821.228,-95.5 821.228,-183.5 "/>
<text text-anchor="middle" x="904.2695" y="-168.3" font-family="Times,serif" font-size="14.00" fill="#000000">clinical_study_designation</text>
<polyline fill="none" stroke="#000000" points="821.228,-161.5 987.311,-161.5 "/>
<text text-anchor="middle" x="904.2695" y="-146.3" font-family="Times,serif" font-size="14.00" fill="#000000">clinical_study_description</text>
<polyline fill="none" stroke="#000000" points="821.228,-139.5 987.311,-139.5 "/>
<text text-anchor="middle" x="904.2695" y="-124.3" font-family="Times,serif" font-size="14.00" fill="#000000">clinical_study_name</text>
<polyline fill="none" stroke="#000000" points="821.228,-117.5 987.311,-117.5 "/>
<text text-anchor="middle" x="904.2695" y="-102.3" font-family="Times,serif" font-size="14.00" fill="#000000">clinical_study_id</text>
<polyline fill="none" stroke="#000000" points="987.311,-95.5 987.311,-183.5 "/>
<text text-anchor="middle" x="997.061" y="-135.3" font-family="Times,serif" font-size="14.00" fill="#000000"> </text>
</g>
<!-- study_arm&#45;&gt;study -->
<g id="edge8" class="edge">
<title>study_arm&#45;&gt;study</title>
<path fill="none" stroke="#000000" d="M881.1006,-234.3446C881.1006,-223.2942 881.1006,-208.5385 881.1006,-193.9638"/>
<polygon fill="#000000" stroke="#000000" points="884.6007,-193.9502 881.1006,-183.9502 877.6007,-193.9503 884.6007,-193.9502"/>
<text text-anchor="middle" x="913.3662" y="-204.8" font-family="Times,serif" font-size="14.00" fill="#000000">member_of</text>
</g>
<!-- case -->
<g id="node2" class="node">
<title>case</title>
<path fill="none" stroke="#000000" d="M727.5073,-416.5C727.5073,-416.5 934.6938,-416.5 934.6938,-416.5 940.6938,-416.5 946.6938,-422.5 946.6938,-428.5 946.6938,-428.5 946.6938,-514.5 946.6938,-514.5 946.6938,-520.5 940.6938,-526.5 934.6938,-526.5 934.6938,-526.5 727.5073,-526.5 727.5073,-526.5 721.5073,-526.5 715.5073,-520.5 715.5073,-514.5 715.5073,-514.5 715.5073,-428.5 715.5073,-428.5 715.5073,-422.5 721.5073,-416.5 727.5073,-416.5"/>
<text text-anchor="middle" x="735.5522" y="-467.3" font-family="Times,serif" font-size="14.00" fill="#000000">case</text>
<polyline fill="none" stroke="#000000" points="755.5972,-416.5 755.5972,-526.5 "/>
<text text-anchor="middle" x="765.3472" y="-467.3" font-family="Times,serif" font-size="14.00" fill="#000000"> </text>
<polyline fill="none" stroke="#000000" points="775.0972,-416.5 775.0972,-526.5 "/>
<text text-anchor="middle" x="851.1455" y="-511.3" font-family="Times,serif" font-size="14.00" fill="#000000">included_in_analysis</text>
<polyline fill="none" stroke="#000000" points="775.0972,-504.5 927.1938,-504.5 "/>
<text text-anchor="middle" x="851.1455" y="-489.3" font-family="Times,serif" font-size="14.00" fill="#000000">ineligible</text>
<polyline fill="none" stroke="#000000" points="775.0972,-482.5 927.1938,-482.5 "/>
<text text-anchor="middle" x="851.1455" y="-467.3" font-family="Times,serif" font-size="14.00" fill="#000000">case_id</text>
<polyline fill="none" stroke="#000000" points="775.0972,-460.5 927.1938,-460.5 "/>
<text text-anchor="middle" x="851.1455" y="-445.3" font-family="Times,serif" font-size="14.00" fill="#000000">on_study_crf_submitted</text>
<polyline fill="none" stroke="#000000" points="775.0972,-438.5 927.1938,-438.5 "/>
<text text-anchor="middle" x="851.1455" y="-423.3" font-family="Times,serif" font-size="14.00" fill="#000000">patient_id</text>
<polyline fill="none" stroke="#000000" points="927.1938,-416.5 927.1938,-526.5 "/>
<text text-anchor="middle" x="936.9438" y="-467.3" font-family="Times,serif" font-size="14.00" fill="#000000"> </text>
</g>
<!-- case&#45;&gt;study_arm -->
<g id="edge12" class="edge">
<title>case&#45;&gt;study_arm</title>
<path fill="none" stroke="#000000" d="M827.8631,-416.3841C827.7294,-387.3971 830.0764,-351.6203 839.5693,-321 844.1756,-306.142 852.685,-291.1909 860.8075,-279.0645"/>
<polygon fill="#000000" stroke="#000000" points="863.7394,-280.979 866.5922,-270.7755 857.9991,-276.9729 863.7394,-280.979"/>
<text text-anchor="middle" x="872.3662" y="-339.3" font-family="Times,serif" font-size="14.00" fill="#000000">member_of</text>
</g>
<!-- case&#45;&gt;study -->
<g id="edge10" class="edge">
<title>case&#45;&gt;study</title>
<path fill="none" stroke="#000000" d="M802.7727,-416.3998C787.5714,-380.604 773.1516,-332.6474 779.5693,-289 783.2824,-263.7468 783.5899,-256.2485 796.1006,-234 804.5089,-219.0469 815.6492,-204.4608 827.0868,-191.3978"/>
<polygon fill="#000000" stroke="#000000" points="829.753,-193.6673 833.837,-183.8912 824.5479,-188.9867 829.753,-193.6673"/>
<text text-anchor="middle" x="812.3662" y="-291.8" font-family="Times,serif" font-size="14.00" fill="#000000">member_of</text>
</g>
<!-- cohort -->
<g id="node8" class="node">
<title>cohort</title>
<path fill="none" stroke="#000000" d="M925.2314,-321.5C925.2314,-321.5 1112.9697,-321.5 1112.9697,-321.5 1118.9697,-321.5 1124.9697,-327.5 1124.9697,-333.5 1124.9697,-333.5 1124.9697,-353.5 1124.9697,-353.5 1124.9697,-359.5 1118.9697,-365.5 1112.9697,-365.5 1112.9697,-365.5 925.2314,-365.5 925.2314,-365.5 919.2314,-365.5 913.2314,-359.5 913.2314,-353.5 913.2314,-353.5 913.2314,-333.5 913.2314,-333.5 913.2314,-327.5 919.2314,-321.5 925.2314,-321.5"/>
<text text-anchor="middle" x="939.1143" y="-339.3" font-family="Times,serif" font-size="14.00" fill="#000000">cohort</text>
<polyline fill="none" stroke="#000000" points="964.9971,-321.5 964.9971,-365.5 "/>
<text text-anchor="middle" x="974.7471" y="-339.3" font-family="Times,serif" font-size="14.00" fill="#000000"> </text>
<polyline fill="none" stroke="#000000" points="984.4971,-321.5 984.4971,-365.5 "/>
<text text-anchor="middle" x="1044.9834" y="-350.3" font-family="Times,serif" font-size="14.00" fill="#000000">cohort_dose</text>
<polyline fill="none" stroke="#000000" points="984.4971,-343.5 1105.4697,-343.5 "/>
<text text-anchor="middle" x="1044.9834" y="-328.3" font-family="Times,serif" font-size="14.00" fill="#000000">cohort_description</text>
<polyline fill="none" stroke="#000000" points="1105.4697,-321.5 1105.4697,-365.5 "/>
<text text-anchor="middle" x="1115.2197" y="-339.3" font-family="Times,serif" font-size="14.00" fill="#000000"> </text>
</g>
<!-- case&#45;&gt;cohort -->
<g id="edge6" class="edge">
<title>case&#45;&gt;cohort</title>
<path fill="none" stroke="#000000" d="M911.9206,-416.4736C934.8071,-400.8913 958.7571,-384.5849 978.1981,-371.3485"/>
<polygon fill="#000000" stroke="#000000" points="980.2183,-374.2073 986.5145,-365.6863 976.2787,-368.4211 980.2183,-374.2073"/>
<text text-anchor="middle" x="991.3662" y="-386.8" font-family="Times,serif" font-size="14.00" fill="#000000">member_of</text>
</g>
<!-- treatment -->
<g id="node3" class="node">
<title>treatment</title>
<path fill="none" stroke="#000000" d="M12,-621.5C12,-621.5 348.2012,-621.5 348.2012,-621.5 354.2012,-621.5 360.2012,-627.5 360.2012,-633.5 360.2012,-633.5 360.2012,-807.5 360.2012,-807.5 360.2012,-813.5 354.2012,-819.5 348.2012,-819.5 348.2012,-819.5 12,-819.5 12,-819.5 6,-819.5 0,-813.5 0,-807.5 0,-807.5 0,-633.5 0,-633.5 0,-627.5 6,-621.5 12,-621.5"/>
<text text-anchor="middle" x="34.4312" y="-716.3" font-family="Times,serif" font-size="14.00" fill="#000000">treatment</text>
<polyline fill="none" stroke="#000000" points="68.8623,-621.5 68.8623,-819.5 "/>
<text text-anchor="middle" x="78.6123" y="-716.3" font-family="Times,serif" font-size="14.00" fill="#000000"> </text>
<polyline fill="none" stroke="#000000" points="88.3623,-621.5 88.3623,-819.5 "/>
<text text-anchor="middle" x="214.5317" y="-804.3" font-family="Times,serif" font-size="14.00" fill="#000000">primary_surgical_procedure</text>
<polyline fill="none" stroke="#000000" points="88.3623,-797.5 340.7012,-797.5 "/>
<text text-anchor="middle" x="214.5317" y="-782.3" font-family="Times,serif" font-size="14.00" fill="#000000">endocrine_therapy_discontinued</text>
<polyline fill="none" stroke="#000000" points="88.3623,-775.5 340.7012,-775.5 "/>
<text text-anchor="middle" x="214.5317" y="-760.3" font-family="Times,serif" font-size="14.00" fill="#000000">specific_chemotherapy_regimen_received</text>
<polyline fill="none" stroke="#000000" points="88.3623,-753.5 340.7012,-753.5 "/>
<text text-anchor="middle" x="214.5317" y="-738.3" font-family="Times,serif" font-size="14.00" fill="#000000">received_chemotherapy</text>
<polyline fill="none" stroke="#000000" points="88.3623,-731.5 340.7012,-731.5 "/>
<text text-anchor="middle" x="214.5317" y="-716.3" font-family="Times,serif" font-size="14.00" fill="#000000">time_to_last_endocrine_therapy</text>
<polyline fill="none" stroke="#000000" points="88.3623,-709.5 340.7012,-709.5 "/>
<text text-anchor="middle" x="214.5317" y="-694.3" font-family="Times,serif" font-size="14.00" fill="#000000">duration_of_endocrine_therapy</text>
<polyline fill="none" stroke="#000000" points="88.3623,-687.5 340.7012,-687.5 "/>
<text text-anchor="middle" x="214.5317" y="-672.3" font-family="Times,serif" font-size="14.00" fill="#000000">type_of_chemotherapy_regimen_received</text>
<polyline fill="none" stroke="#000000" points="88.3623,-665.5 340.7012,-665.5 "/>
<text text-anchor="middle" x="214.5317" y="-650.3" font-family="Times,serif" font-size="14.00" fill="#000000">time_to_first_endocrine_therapy</text>
<polyline fill="none" stroke="#000000" points="88.3623,-643.5 340.7012,-643.5 "/>
<text text-anchor="middle" x="214.5317" y="-628.3" font-family="Times,serif" font-size="14.00" fill="#000000">type_of_endocrine_therapy_received</text>
<polyline fill="none" stroke="#000000" points="340.7012,-621.5 340.7012,-819.5 "/>
<text text-anchor="middle" x="350.4512" y="-716.3" font-family="Times,serif" font-size="14.00" fill="#000000"> </text>
</g>
<!-- treatment&#45;&gt;case -->
<g id="edge4" class="edge">
<title>treatment&#45;&gt;case</title>
<path fill="none" stroke="#000000" d="M294.8541,-621.3605C318.2987,-604.6529 343.6243,-588.899 369.1006,-577 476.5535,-526.8127 609.4787,-499.6946 705.1214,-485.5784"/>
<polygon fill="#000000" stroke="#000000" points="705.7378,-489.0257 715.1327,-484.1281 704.7342,-482.098 705.7378,-489.0257"/>
<text text-anchor="middle" x="462.4766" y="-547.8" font-family="Times,serif" font-size="14.00" fill="#000000">of_case</text>
</g>
<!-- program -->
<g id="node4" class="node">
<title>program</title>
<path fill="none" stroke="#000000" d="M801.228,-.5C801.228,-.5 960.9731,-.5 960.9731,-.5 966.9731,-.5 972.9731,-6.5 972.9731,-12.5 972.9731,-12.5 972.9731,-32.5 972.9731,-32.5 972.9731,-38.5 966.9731,-44.5 960.9731,-44.5 960.9731,-44.5 801.228,-44.5 801.228,-44.5 795.228,-44.5 789.228,-38.5 789.228,-32.5 789.228,-32.5 789.228,-12.5 789.228,-12.5 789.228,-6.5 795.228,-.5 801.228,-.5"/>
<text text-anchor="middle" x="820.9419" y="-18.3" font-family="Times,serif" font-size="14.00" fill="#000000">program</text>
<polyline fill="none" stroke="#000000" points="852.6558,-.5 852.6558,-44.5 "/>
<text text-anchor="middle" x="862.4058" y="-18.3" font-family="Times,serif" font-size="14.00" fill="#000000"> </text>
<polyline fill="none" stroke="#000000" points="872.1558,-.5 872.1558,-44.5 "/>
<text text-anchor="middle" x="912.8145" y="-29.3" font-family="Times,serif" font-size="14.00" fill="#000000">name</text>
<polyline fill="none" stroke="#000000" points="872.1558,-22.5 953.4731,-22.5 "/>
<text text-anchor="middle" x="912.8145" y="-7.3" font-family="Times,serif" font-size="14.00" fill="#000000">short_name</text>
<polyline fill="none" stroke="#000000" points="953.4731,-.5 953.4731,-44.5 "/>
<text text-anchor="middle" x="963.2231" y="-18.3" font-family="Times,serif" font-size="14.00" fill="#000000"> </text>
</g>
<!-- diagnosis -->
<g id="node5" class="node">
<title>diagnosis</title>
<path fill="none" stroke="#000000" d="M390.1313,-643.5C390.1313,-643.5 654.0698,-643.5 654.0698,-643.5 660.0698,-643.5 666.0698,-649.5 666.0698,-655.5 666.0698,-655.5 666.0698,-785.5 666.0698,-785.5 666.0698,-791.5 660.0698,-797.5 654.0698,-797.5 654.0698,-797.5 390.1313,-797.5 390.1313,-797.5 384.1313,-797.5 378.1313,-791.5 378.1313,-785.5 378.1313,-785.5 378.1313,-655.5 378.1313,-655.5 378.1313,-649.5 384.1313,-643.5 390.1313,-643.5"/>
<text text-anchor="middle" x="412.5762" y="-716.3" font-family="Times,serif" font-size="14.00" fill="#000000">diagnosis</text>
<polyline fill="none" stroke="#000000" points="447.021,-643.5 447.021,-797.5 "/>
<text text-anchor="middle" x="456.771" y="-716.3" font-family="Times,serif" font-size="14.00" fill="#000000"> </text>
<polyline fill="none" stroke="#000000" points="466.521,-643.5 466.521,-797.5 "/>
<text text-anchor="middle" x="556.5454" y="-782.3" font-family="Times,serif" font-size="14.00" fill="#000000">nuclear_grade</text>
<polyline fill="none" stroke="#000000" points="466.521,-775.5 646.5698,-775.5 "/>
<text text-anchor="middle" x="556.5454" y="-760.3" font-family="Times,serif" font-size="14.00" fill="#000000">tumor_size_group</text>
<polyline fill="none" stroke="#000000" points="466.521,-753.5 646.5698,-753.5 "/>
<text text-anchor="middle" x="556.5454" y="-738.3" font-family="Times,serif" font-size="14.00" fill="#000000">recurrence_score</text>
<polyline fill="none" stroke="#000000" points="466.521,-731.5 646.5698,-731.5 "/>
<text text-anchor="middle" x="556.5454" y="-716.3" font-family="Times,serif" font-size="14.00" fill="#000000">progesterone_receptor_status</text>
<polyline fill="none" stroke="#000000" points="466.521,-709.5 646.5698,-709.5 "/>
<text text-anchor="middle" x="556.5454" y="-694.3" font-family="Times,serif" font-size="14.00" fill="#000000">estrogen_receptor_status</text>
<polyline fill="none" stroke="#000000" points="466.521,-687.5 646.5698,-687.5 "/>
<text text-anchor="middle" x="556.5454" y="-672.3" font-family="Times,serif" font-size="14.00" fill="#000000">tumor_size</text>
<polyline fill="none" stroke="#000000" points="466.521,-665.5 646.5698,-665.5 "/>
<text text-anchor="middle" x="556.5454" y="-650.3" font-family="Times,serif" font-size="14.00" fill="#000000">histological_grade</text>
<polyline fill="none" stroke="#000000" points="646.5698,-643.5 646.5698,-797.5 "/>
<text text-anchor="middle" x="656.3198" y="-716.3" font-family="Times,serif" font-size="14.00" fill="#000000"> </text>
</g>
<!-- diagnosis&#45;&gt;case -->
<g id="edge2" class="edge">
<title>diagnosis&#45;&gt;case</title>
<path fill="none" stroke="#000000" d="M599.7568,-643.1694C623.2736,-621.0003 649.6341,-597.3422 675.1006,-577 694.1851,-561.7556 715.4162,-546.424 735.9157,-532.3544"/>
<polygon fill="#000000" stroke="#000000" points="738.0466,-535.1377 744.3397,-526.6143 734.1049,-529.353 738.0466,-535.1377"/>
<text text-anchor="middle" x="738.4766" y="-547.8" font-family="Times,serif" font-size="14.00" fill="#000000">of_case</text>
</g>
<!-- demographic -->
<g id="node6" class="node">
<title>demographic</title>
<path fill="none" stroke="#000000" d="M696.4209,-676.5C696.4209,-676.5 965.7803,-676.5 965.7803,-676.5 971.7803,-676.5 977.7803,-682.5 977.7803,-688.5 977.7803,-688.5 977.7803,-752.5 977.7803,-752.5 977.7803,-758.5 971.7803,-764.5 965.7803,-764.5 965.7803,-764.5 696.4209,-764.5 696.4209,-764.5 690.4209,-764.5 684.4209,-758.5 684.4209,-752.5 684.4209,-752.5 684.4209,-688.5 684.4209,-688.5 684.4209,-682.5 690.4209,-676.5 696.4209,-676.5"/>
<text text-anchor="middle" x="728.9624" y="-716.3" font-family="Times,serif" font-size="14.00" fill="#000000">demographic</text>
<polyline fill="none" stroke="#000000" points="773.5039,-676.5 773.5039,-764.5 "/>
<text text-anchor="middle" x="783.2539" y="-716.3" font-family="Times,serif" font-size="14.00" fill="#000000"> </text>
<polyline fill="none" stroke="#000000" points="793.0039,-676.5 793.0039,-764.5 "/>
<text text-anchor="middle" x="875.6421" y="-749.3" font-family="Times,serif" font-size="14.00" fill="#000000">ethnicity</text>
<polyline fill="none" stroke="#000000" points="793.0039,-742.5 958.2803,-742.5 "/>
<text text-anchor="middle" x="875.6421" y="-727.3" font-family="Times,serif" font-size="14.00" fill="#000000">race</text>
<polyline fill="none" stroke="#000000" points="793.0039,-720.5 958.2803,-720.5 "/>
<text text-anchor="middle" x="875.6421" y="-705.3" font-family="Times,serif" font-size="14.00" fill="#000000">menopausal_status</text>
<polyline fill="none" stroke="#000000" points="793.0039,-698.5 958.2803,-698.5 "/>
<text text-anchor="middle" x="875.6421" y="-683.3" font-family="Times,serif" font-size="14.00" fill="#000000">patient_age_at_enrollment</text>
<polyline fill="none" stroke="#000000" points="958.2803,-676.5 958.2803,-764.5 "/>
<text text-anchor="middle" x="968.0303" y="-716.3" font-family="Times,serif" font-size="14.00" fill="#000000"> </text>
</g>
<!-- demographic&#45;&gt;case -->
<g id="edge1" class="edge">
<title>demographic&#45;&gt;case</title>
<path fill="none" stroke="#000000" d="M831.1006,-676.2707C831.1006,-637.5047 831.1006,-580.6382 831.1006,-536.6632"/>
<polygon fill="#000000" stroke="#000000" points="834.6007,-536.6362 831.1006,-526.6363 827.6007,-536.6363 834.6007,-536.6362"/>
<text text-anchor="middle" x="852.4766" y="-547.8" font-family="Times,serif" font-size="14.00" fill="#000000">of_case</text>
</g>
<!-- study&#45;&gt;program -->
<g id="edge9" class="edge">
<title>study&#45;&gt;program</title>
<path fill="none" stroke="#000000" d="M881.1006,-95.2673C881.1006,-81.7183 881.1006,-67.0819 881.1006,-54.5132"/>
<polygon fill="#000000" stroke="#000000" points="884.6007,-54.5111 881.1006,-44.5111 877.6007,-54.5111 884.6007,-54.5111"/>
<text text-anchor="middle" x="913.3662" y="-65.8" font-family="Times,serif" font-size="14.00" fill="#000000">member_of</text>
</g>
<!-- cohort&#45;&gt;study_arm -->
<g id="edge7" class="edge">
<title>cohort&#45;&gt;study_arm</title>
<path fill="none" stroke="#000000" d="M959.5345,-321.42C948.4574,-316.1452 937.3155,-309.9838 927.5693,-303 917.9301,-296.0928 908.762,-286.923 901.1557,-278.294"/>
<polygon fill="#000000" stroke="#000000" points="903.7746,-275.9706 894.6407,-270.6018 898.433,-280.4947 903.7746,-275.9706"/>
<text text-anchor="middle" x="960.3662" y="-291.8" font-family="Times,serif" font-size="14.00" fill="#000000">member_of</text>
</g>
<!-- cohort&#45;&gt;study -->
<g id="edge11" class="edge">
<title>cohort&#45;&gt;study</title>
<path fill="none" stroke="#000000" d="M1011.4331,-321.409C1000.6426,-292.2324 979.0165,-240.0988 950.1006,-202 947.2577,-198.2543 944.1698,-194.5527 940.9293,-190.9336"/>
<polygon fill="#000000" stroke="#000000" points="943.483,-188.5402 934.093,-183.6332 938.3735,-193.3248 943.483,-188.5402"/>
<text text-anchor="middle" x="1022.3662" y="-248.3" font-family="Times,serif" font-size="14.00" fill="#000000">member_of</text>
</g>
<!-- survival -->
<g id="node9" class="node">
<title>survival</title>
<path fill="none" stroke="#000000" d="M1007.5278,-577.5C1007.5278,-577.5 1270.6733,-577.5 1270.6733,-577.5 1276.6733,-577.5 1282.6733,-583.5 1282.6733,-589.5 1282.6733,-589.5 1282.6733,-851.5 1282.6733,-851.5 1282.6733,-857.5 1276.6733,-863.5 1270.6733,-863.5 1270.6733,-863.5 1007.5278,-863.5 1007.5278,-863.5 1001.5278,-863.5 995.5278,-857.5 995.5278,-851.5 995.5278,-851.5 995.5278,-589.5 995.5278,-589.5 995.5278,-583.5 1001.5278,-577.5 1007.5278,-577.5"/>
<text text-anchor="middle" x="1026.0796" y="-716.3" font-family="Times,serif" font-size="14.00" fill="#000000">survival</text>
<polyline fill="none" stroke="#000000" points="1056.6313,-577.5 1056.6313,-863.5 "/>
<text text-anchor="middle" x="1066.3813" y="-716.3" font-family="Times,serif" font-size="14.00" fill="#000000"> </text>
<polyline fill="none" stroke="#000000" points="1076.1313,-577.5 1076.1313,-863.5 "/>
<text text-anchor="middle" x="1169.6523" y="-848.3" font-family="Times,serif" font-size="14.00" fill="#000000">type_of_first_recurrence</text>
<polyline fill="none" stroke="#000000" points="1076.1313,-841.5 1263.1733,-841.5 "/>
<text text-anchor="middle" x="1169.6523" y="-826.3" font-family="Times,serif" font-size="14.00" fill="#000000">lost_to_follow_up</text>
<polyline fill="none" stroke="#000000" points="1076.1313,-819.5 1263.1733,-819.5 "/>
<text text-anchor="middle" x="1169.6523" y="-804.3" font-family="Times,serif" font-size="14.00" fill="#000000">disease_free_survival_interval</text>
<polyline fill="none" stroke="#000000" points="1076.1313,-797.5 1263.1733,-797.5 "/>
<text text-anchor="middle" x="1169.6523" y="-782.3" font-family="Times,serif" font-size="14.00" fill="#000000">disease_free_event_indicator</text>
<polyline fill="none" stroke="#000000" points="1076.1313,-775.5 1263.1733,-775.5 "/>
<text text-anchor="middle" x="1169.6523" y="-760.3" font-family="Times,serif" font-size="14.00" fill="#000000">recurrence_free_interval</text>
<polyline fill="none" stroke="#000000" points="1076.1313,-753.5 1263.1733,-753.5 "/>
<text text-anchor="middle" x="1169.6523" y="-738.3" font-family="Times,serif" font-size="14.00" fill="#000000">survival_status</text>
<polyline fill="none" stroke="#000000" points="1076.1313,-731.5 1263.1733,-731.5 "/>
<text text-anchor="middle" x="1169.6523" y="-716.3" font-family="Times,serif" font-size="14.00" fill="#000000">consent_withdrawn</text>
<polyline fill="none" stroke="#000000" points="1076.1313,-709.5 1263.1733,-709.5 "/>
<text text-anchor="middle" x="1169.6523" y="-694.3" font-family="Times,serif" font-size="14.00" fill="#000000">length_of_survival</text>
<polyline fill="none" stroke="#000000" points="1076.1313,-687.5 1263.1733,-687.5 "/>
<text text-anchor="middle" x="1169.6523" y="-672.3" font-family="Times,serif" font-size="14.00" fill="#000000">distant_recurrence_indicator</text>
<polyline fill="none" stroke="#000000" points="1076.1313,-665.5 1263.1733,-665.5 "/>
<text text-anchor="middle" x="1169.6523" y="-650.3" font-family="Times,serif" font-size="14.00" fill="#000000">recurrence_indicator</text>
<polyline fill="none" stroke="#000000" points="1076.1313,-643.5 1263.1733,-643.5 "/>
<text text-anchor="middle" x="1169.6523" y="-628.3" font-family="Times,serif" font-size="14.00" fill="#000000">distant_recurrence_interval</text>
<polyline fill="none" stroke="#000000" points="1076.1313,-621.5 1263.1733,-621.5 "/>
<text text-anchor="middle" x="1169.6523" y="-606.3" font-family="Times,serif" font-size="14.00" fill="#000000">cause_of_death</text>
<polyline fill="none" stroke="#000000" points="1076.1313,-599.5 1263.1733,-599.5 "/>
<text text-anchor="middle" x="1169.6523" y="-584.3" font-family="Times,serif" font-size="14.00" fill="#000000">type_of_first_dfs_event</text>
<polyline fill="none" stroke="#000000" points="1263.1733,-577.5 1263.1733,-863.5 "/>
<text text-anchor="middle" x="1272.9233" y="-716.3" font-family="Times,serif" font-size="14.00" fill="#000000"> </text>
</g>
<!-- survival&#45;&gt;case -->
<g id="edge5" class="edge">
<title>survival&#45;&gt;case</title>
<path fill="none" stroke="#000000" d="M995.1958,-583.5754C992.4907,-581.3499 989.7908,-579.1561 987.1006,-577 968.041,-561.7243 946.8203,-546.3798 926.323,-532.3074"/>
<polygon fill="#000000" stroke="#000000" points="928.1341,-529.3062 917.8995,-526.5668 924.192,-535.0906 928.1341,-529.3062"/>
<text text-anchor="middle" x="984.4766" y="-547.8" font-family="Times,serif" font-size="14.00" fill="#000000">of_case</text>
</g>
<!-- stratification -->
<g id="node10" class="node">
<title>stratification</title>
<path fill="none" stroke="#000000" d="M1312.8071,-654.5C1312.8071,-654.5 1637.394,-654.5 1637.394,-654.5 1643.394,-654.5 1649.394,-660.5 1649.394,-666.5 1649.394,-666.5 1649.394,-774.5 1649.394,-774.5 1649.394,-780.5 1643.394,-786.5 1637.394,-786.5 1637.394,-786.5 1312.8071,-786.5 1312.8071,-786.5 1306.8071,-786.5 1300.8071,-780.5 1300.8071,-774.5 1300.8071,-774.5 1300.8071,-666.5 1300.8071,-666.5 1300.8071,-660.5 1306.8071,-654.5 1312.8071,-654.5"/>
<text text-anchor="middle" x="1343.8003" y="-716.3" font-family="Times,serif" font-size="14.00" fill="#000000">stratification</text>
<polyline fill="none" stroke="#000000" points="1386.7935,-654.5 1386.7935,-786.5 "/>
<text text-anchor="middle" x="1396.5435" y="-716.3" font-family="Times,serif" font-size="14.00" fill="#000000"> </text>
<polyline fill="none" stroke="#000000" points="1406.2935,-654.5 1406.2935,-786.5 "/>
<text text-anchor="middle" x="1518.0938" y="-771.3" font-family="Times,serif" font-size="14.00" fill="#000000">grouped_recurrence_score</text>
<polyline fill="none" stroke="#000000" points="1406.2935,-764.5 1629.894,-764.5 "/>
<text text-anchor="middle" x="1518.0938" y="-749.3" font-family="Times,serif" font-size="14.00" fill="#000000">menopausal_status_stratification</text>
<polyline fill="none" stroke="#000000" points="1406.2935,-742.5 1629.894,-742.5 "/>
<text text-anchor="middle" x="1518.0938" y="-727.3" font-family="Times,serif" font-size="14.00" fill="#000000">combined_stratification_variable</text>
<polyline fill="none" stroke="#000000" points="1406.2935,-720.5 1629.894,-720.5 "/>
<text text-anchor="middle" x="1518.0938" y="-705.3" font-family="Times,serif" font-size="14.00" fill="#000000">planned_radiotherapy</text>
<polyline fill="none" stroke="#000000" points="1406.2935,-698.5 1629.894,-698.5 "/>
<text text-anchor="middle" x="1518.0938" y="-683.3" font-family="Times,serif" font-size="14.00" fill="#000000">tumor_size_stratification</text>
<polyline fill="none" stroke="#000000" points="1406.2935,-676.5 1629.894,-676.5 "/>
<text text-anchor="middle" x="1518.0938" y="-661.3" font-family="Times,serif" font-size="14.00" fill="#000000">planned_chemotherapy_stratification</text>
<polyline fill="none" stroke="#000000" points="1629.894,-654.5 1629.894,-786.5 "/>
<text text-anchor="middle" x="1639.644" y="-716.3" font-family="Times,serif" font-size="14.00" fill="#000000"> </text>
</g>
<!-- stratification&#45;&gt;case -->
<g id="edge3" class="edge">
<title>stratification&#45;&gt;case</title>
<path fill="none" stroke="#000000" d="M1405.7074,-654.2108C1373.4033,-626.6314 1333.098,-596.5513 1292.1006,-577 1185.2747,-526.0558 1052.5874,-499.0331 957.033,-485.1449"/>
<polygon fill="#000000" stroke="#000000" points="957.4243,-481.6654 947.0305,-483.7193 956.4366,-488.5954 957.4243,-481.6654"/>
<text text-anchor="middle" x="1266.4766" y="-547.8" font-family="Times,serif" font-size="14.00" fill="#000000">of_case</text>
</g>
</g>
</svg>
